Coordinates																																									
version=1																																									
nRows=29																																									
nColumns=42																																									
inDegrees=yes																																									
																																									
"Units are S.I. units (second, meters, Newtons, ...)"																																									
Angles are in degrees.																																									
																																									
endheader																																									
time	pelvis_tx	pelvis_ty	pelvis_tz	pelvis_tilt	pelvis_list	pelvis_rotation	hip_flexion_r	hip_adduction_r	hip_rotation_r	knee_angle_r	ankle_angle_r	subtalar_angle_r	mtp_angle_r	hip_flexion_l	hip_adduction_l	hip_rotation_l	knee_angle_l	ankle_angle_l	subtalar_angle_l	mtp_angle_l	lumbar_extension	lumbar_bending	lumbar_rotation	ground_force_vx	ground_force_vy	ground_force_vz	ground_force_px	ground_force_py	ground_force_pz	ground_force_vx	ground_force_vy	ground_force_vz	ground_force_px	ground_force_py	ground_force_pz	ground_torque_x	ground_torque_y	ground_torque_z	ground_torque_x	ground_torque_y	ground_torque_z
0.84	0.321396	0.683761	-0.245621	9.502959	23.984861	-110.31147	28.318338	-2.140805	-0.509712	-48.437509	10.912595	0	0	55.502947	-4.521365	-15.047206	-46.17866	5.648919	0	0	23.680604	-4.30977	15.325788	0	0	0	0	0	0	-9.529826	124.793442	-17.259998	0.405477	-0.007537	-0.117451	0	0	0	0.002237	-0.186977	-0.003737
0.85	0.320747	0.682095	-0.237505	9.458942	23.834139	-111.049316	29.066447	-2.334549	-0.401737	-50.653646	9.293231	0	0	55.263122	-5.374902	-16.053226	-47.859142	5.757666	0	0	23.764675	-4.193573	15.841415	0	0	0	0	0	0	-11.645552	144.751083	-19.57802	0.405325	-0.008333	-0.116235	0	0	0	0.002229	-0.186347	-0.003724
0.86	0.320279	0.680406	-0.229412	9.430903	23.703512	-111.731972	29.882013	-2.519114	-0.223474	-52.983956	7.778258	0	0	55.039228	-6.089627	-16.904015	-49.484864	6.007107	0	0	23.841417	-4.092742	16.280695	0	0	0	0	0	0	-13.688935	164.565491	-21.757235	0.40506	-0.008821	-0.115004	0	0	0	0.002284	-0.190944	-0.003816
0.87	0.320027	0.678739	-0.221381	9.410924	23.606489	-112.312744	30.789335	-2.664403	0.0346	-55.394542	6.465487	0	0	54.825198	-6.606184	-17.52005	-50.990951	6.437841	0	0	23.90438	-4.004609	16.591583	0	0	0	0	0	0	-15.634809	184.017502	-23.343948	0.404803	-0.009021	-0.114032	0	0	0	0.002425	-0.20277	-0.004052
0.88	0.319975	0.67714	-0.213439	9.388176	23.54528	-112.765457	31.796696	-2.755716	0.348038	-57.846812	5.421704	0	0	54.603794	-6.916604	-17.89989	-52.333056	7.039499	0	0	23.948149	-3.926356	16.747938	0	0	0	0	0	0	-17.502361	202.900406	-24.034918	0.404646	-0.008995	-0.113418	0	0	0	0.002666	-0.222919	-0.004455
0.89	0.320077	0.675651	-0.205609	9.354998	23.515348	-113.08313	32.900529	-2.790888	0.677224	-60.2962	4.693543	0	0	54.356746	-7.0459	-18.09102	-53.488393	7.767608	0	0	23.970392	-3.857901	16.748233	0	0	0	0	0	0	-19.323498	220.954254	-23.698463	0.404598	-0.008821	-0.113146	0	0	0	0.003002	-0.25094	-0.005015
0.9	0.320266	0.674307	-0.197914	9.308627	23.512123	-113.275536	34.092736	-2.771058	0.986299	-62.692817	4.311281	0	0	54.074891	-7.037415	-18.159294	-54.454779	8.560974	0	0	23.974046	-3.800917	16.610532	0	0	0	0	0	0	-21.104826	237.840729	-22.415552	0.404619	-0.00858	-0.11313	0	0	0	0.003415	-0.285463	-0.005705
0.91	0.320467	0.673139	-0.19038	9.251247	23.533144	-113.365654	35.364589	-2.69589	1.252705	-64.983977	4.287586	0	0	53.760207	-6.942458	-18.171378	-55.246487	9.35278	0	0	23.966709	-3.758546	16.366231	0	0	0	0	0	0	-22.795692	253.09967	-20.404661	0.404652	-0.008338	-0.113266	0	0	0	0.003891	-0.325255	-0.0065
0.92	0.320607	0.672176	-0.18303	9.185213	23.577227	-113.382629	36.705515	-2.560546	1.466087	-67.116915	4.615889	0	0	53.422379	-6.814064	-18.182809	-55.889806	10.079521	0	0	23.956742	-3.732331	16.052485	0	0	0	0	0	0	-24.296028	266.176697	-17.93585	0.404658	-0.008138	-0.113467	0	0	0	0.004428	-0.370154	-0.007398
0.93	0.320621	0.671443	-0.175879	9.102025	23.645201	-113.351479	38.099751	-2.349436	1.619572	-69.040003	5.268252	0	0	53.075877	-6.707237	-18.226336	-56.421017	10.689017	0	0	23.948955	-3.713573	15.703006	0	0	0	0	0	0	-25.490416	276.517273	-15.287962	0.404622	-0.008001	-0.11366	0	0	0	0.005027	-0.42024	-0.008398
0.94	0.320468	0.670968	-0.168929	8.98024	23.738424	-113.284309	39.524812	-2.042422	1.700378	-70.705872	6.19773	0	0	52.735358	-6.670408	-18.306232	-56.879937	11.143939	0	0	23.942137	-3.682514	15.338332	0	0	0	0	0	0	-26.289789	283.69574	-12.706787	0.404547	-0.007929	-0.113794	0	0	0	0.005673	-0.47426	-0.009478
0.95	0.320143	0.670771	-0.162159	8.800269	23.853453	-113.180481	40.955129	-1.635636	1.689777	-72.078153	7.346085	0	0	52.408383	-6.726128	-18.406349	-57.296825	11.420664	0	0	23.930106	-3.621471	14.963553	0	0	0	0	0	0	-26.661364	287.512268	-10.366223	0.404447	-0.007907	-0.113838	0	0	0	0.006329	-0.529122	-0.010574
0.96	0.319667	0.670871	-0.155531	8.557374	23.980413	-113.035889	42.36849	-1.14953	1.571939	-73.135514	8.649126	0	0	52.092009	-6.866408	-18.505894	-57.684656	11.508623	0	0	23.905749	-3.524774	14.576389	0	0	0	0	0	0	-26.641434	288.043457	-8.371121	0.404339	-0.007914	-0.113779	0	0	0	0.006949	-0.580978	-0.011611
0.97	0.319068	0.671269	-0.148997	8.255566	24.109226	-112.849884	43.748854	-0.611019	1.339012	-73.867396	10.037045	0	0	51.777355	-7.072221	-18.587192	-58.044129	11.412412	0	0	23.864852	-3.391908	14.174938	0	0	0	0	0	0	-26.320841	285.639526	-6.752562	0.404234	-0.007928	-0.113618	0	0	0	0.007475	-0.624935	-0.012489
0.98	0.31836	0.671958	-0.14252	7.894601	24.236435	-112.626381	45.084805	-0.031349	0.991224	-74.267188	11.436436	0	0	51.455906	-7.334605	-18.635083	-58.37262	11.153057	0	0	23.807265	-3.215832	13.760243	0	0	0	0	0	0	-25.816351	280.854187	-5.472576	0.404137	-0.007925	-0.113368	0	0	0	0.007852	-0.656473	-0.01312
0.99	0.317536	0.672917	-0.136069	7.471257	24.362801	-112.375702	46.367077	0.595105	0.540651	-74.331364	12.77911	0	0	51.118215	-7.655339	-18.64099	-58.665663	10.764518	0	0	23.734713	-2.985228	13.338892	0	0	0	0	0	0	-25.235748	274.317291	-4.447851	0.404043	-0.007887	-0.113056	0	0	0	0.008057	-0.673533	-0.013461
1	0.316583	0.67412	-0.129624	6.989856	24.485792	-112.116318	47.586795	1.276278	0.013826	-74.062528	14.011139	0	0	50.748596	-8.034468	-18.609851	-58.913387	10.287064	0	0	23.647433	-2.695764	12.924976	0	0	0	0	0	0	-24.656494	266.628235	-3.571559	0.403939	-0.007808	-0.112713	0	0	0	0.008086	-0.676037	-0.013511
1.01	0.315492	0.67554	-0.123165	6.464111	24.597765	-111.86895	48.734417	2.011134	-0.558035	-73.469005	15.094141	0	0	50.325978	-8.462341	-18.556536	-59.100589	9.76124	0	0	23.543052	-2.353502	12.533596	0	0	0	0	0	0	-24.122143	258.309448	-2.73465	0.403814	-0.007689	-0.112377	0	0	0	0.007968	-0.666168	-0.013313
1.02	0.314267	0.677145	-0.116676	5.910487	24.690058	-111.645935	49.799643	2.786131	-1.154815	-72.561498	16.001924	0	0	49.830714	-8.918574	-18.493864	-59.210637	9.223305	0	0	23.417888	-1.970073	12.168357	0	0	0	0	0	0	-23.648256	249.788727	-1.844246	0.40366	-0.00754	-0.112089	0	0	0	0.007756	-0.648366	-0.012958
1.03	0.312932	0.678896	-0.110135	5.344477	24.757019	-111.448318	50.77355	3.577559	-1.772574	-71.351476	16.717141	0	0	49.250418	-9.375364	-18.427451	-59.229379	8.702228	0	0	23.269485	-1.558641	11.819033	0	0	0	0	0	0	-23.23362	241.360809	-0.837055	0.403467	-0.007372	-0.111896	0	0	0	0.007497	-0.626762	-0.012526
1.04	0.311516	0.680749	-0.103528	4.782533	24.798143	-111.273811	51.652609	4.35864	-2.415577	-69.851716	17.226963	0	0	48.58249	-9.804655	-18.361611	-59.147635	8.218684	0	0	23.0999	-1.133244	11.473466	0	0	0	0	0	0	-22.862526	233.201416	0.315505	0.403224	-0.0072	-0.111837	0	0	0	0.007238	-0.605071	-0.012092
1.05	0.310037	0.682648	-0.096846	4.242616	24.818281	-111.123779	52.440027	5.107348	-3.087982	-68.076673	17.518045	0	0	47.83384	-10.18537	-18.304311	-58.963261	7.78573	0	0	22.916835	-0.708256	11.126455	0	0	0	0	0	0	-22.509253	225.380096	1.608978	0.402918	-0.007037	-0.111928	0	0	0	0.007012	-0.586205	-0.011715
1.06	0.308504	0.684541	-0.090087	3.738491	24.824085	-111.000137	53.140012	5.809642	-3.794547	-66.042219	17.573814	0	0	47.016792	-10.505652	-18.261788	-58.682451	7.410306	0	0	22.728991	-0.295574	10.774792	0	0	0	0	0	0	-22.14113	217.904419	3.008649	0.402542	-0.006891	-0.112172	0	0	0	0.006842	-0.571967	-0.011431
1.07	0.306921	0.686382	-0.083248	3.274853	24.818874	-110.899948	53.750942	6.457937	-4.543546	-63.767343	17.375682	0	0	46.14289	-10.760816	-18.232638	-58.318962	7.094623	0	0	22.540044	0.097907	10.412567	0	0	0	0	0	0	-21.727751	210.75824	4.46292	0.402089	-0.006762	-0.112552	0	0	0	0.006731	-0.562727	-0.011246
1.08	0.305288	0.688133	-0.07632	2.848636	24.802874	-110.817802	54.266843	7.051744	-5.343233	-61.27722	16.90606	0	0	45.221603	-10.95428	-18.211383	-57.892704	6.83741	0	0	22.349936	0.471089	10.037615	0	0	0	0	0	0	-21.244495	203.940201	5.917545	0.401568	-0.006648	-0.113039	0	0	0	0.006673	-0.55784	-0.011148
1.09	0.303592	0.689758	-0.069294	2.452619	24.777113	-110.749924	54.683563	7.599021	-6.196833	-58.606315	16.152188	0	0	44.263505	-11.099042	-18.1935	-57.428531	6.63504	0	0	22.160142	0.827269	9.656157	0	0	0	0	0	0	-20.681271	197.475189	7.323934	0.401	-0.006543	-0.113598	0	0	0	0.006647	-0.555722	-0.011106
1.1	0.301817	0.691221	-0.062157	2.082319	24.740913	-110.695549	55.0003	8.108819	-7.098736	-55.803643	15.113224	0	0	43.277339	-11.209099	-18.178583	-56.951736	6.481529	0	0	21.973316	1.16683	9.280418	0	0	0	0	0	0	-20.042439	191.419067	8.646018	0.400411	-0.006446	-0.114191	0	0	0	0.006628	-0.554121	-0.011074
1.11	0.29995	0.692492	-0.054892	1.742042	24.687033	-110.656303	55.218514	8.581412	-8.032805	-52.937368	13.808438	0	0	42.264954	-11.288687	-18.171636	-56.482994	6.368112	0	0	21.790211	1.481463	8.925987	0	0	0	0	0	0	-19.349421	185.854233	9.857866	0.399821	-0.006354	-0.114777	0	0	0	0.006594	-0.551246	-0.011017
1.12	0.297988	0.693542	-0.047477	1.435946	24.605972	-110.628433	55.342024	9.010479	-8.980839	-50.090336	12.280024	0	0	41.226831	-11.336939	-18.173585	-56.041446	6.285069	0	0	21.61063	1.763138	8.603287	0	0	0	0	0	0	-18.638111	180.857666	10.94769	0.399255	-0.006269	-0.11532	0	0	0	0.006528	-0.545721	-0.010906
